<svg width="20" height="20" viewBox="0 0 20 20" fill="none" xmlns="http://www.w3.org/2000/svg">
<path fill-rule="evenodd" clip-rule="evenodd" d="M12.5002 6.6665C12.5002 8.04722 11.381 9.1665 10.0002 9.1665C8.61953 9.1665 7.50024 8.04722 7.50024 6.6665C7.50024 5.28579 8.61953 4.1665 10.0002 4.1665C10.6633 4.1665 11.2992 4.4299 11.768 4.89874C12.2369 5.36758 12.5002 6.00346 12.5002 6.6665Z" stroke="#8251F4" stroke-width="1.5" stroke-linecap="round" stroke-linejoin="round"/>
<path fill-rule="evenodd" clip-rule="evenodd" d="M12.1395 10.8333H7.86117C7.5922 10.8336 7.32517 10.8789 7.07117 10.9674C4.14617 11.9766 6.92867 15.8333 10.0003 15.8333C13.072 15.8333 15.8545 11.9766 12.9287 10.9674C12.6749 10.879 12.4082 10.8337 12.1395 10.8333Z" stroke="#8251F4" stroke-width="1.5" stroke-linecap="round" stroke-linejoin="round"/>
</svg>
